<mxfile host="app.diagrams.net" modified="2022-10-05T04:08:21.619Z" agent="5.0 (Macintosh; Intel Mac OS X 10_15_7) AppleWebKit/537.36 (KHTML, like Gecko) Chrome/105.0.0.0 Safari/537.36" etag="PQOSpYEKJnQksY3O0EZi" version="20.4.0" type="github">
  <diagram id="NVQybY2-NAw2xx8S69dp" name="frontend">
    <mxGraphModel dx="1311" dy="562" grid="1" gridSize="10" guides="1" tooltips="1" connect="1" arrows="1" fold="1" page="1" pageScale="1" pageWidth="827" pageHeight="1169" math="0" shadow="0">
      <root>
        <mxCell id="0" />
        <mxCell id="1" parent="0" />
        <mxCell id="8R4nlL-NDN4ofbqcLxZN-17" style="edgeStyle=orthogonalEdgeStyle;rounded=0;orthogonalLoop=1;jettySize=auto;html=1;entryX=0;entryY=0.5;entryDx=0;entryDy=0;" edge="1" parent="1" source="8R4nlL-NDN4ofbqcLxZN-1" target="8R4nlL-NDN4ofbqcLxZN-2">
          <mxGeometry relative="1" as="geometry" />
        </mxCell>
        <mxCell id="8R4nlL-NDN4ofbqcLxZN-1" value="ISP" style="rounded=0;whiteSpace=wrap;html=1;" vertex="1" parent="1">
          <mxGeometry x="240" y="80" width="120" height="60" as="geometry" />
        </mxCell>
        <mxCell id="8R4nlL-NDN4ofbqcLxZN-19" style="edgeStyle=orthogonalEdgeStyle;rounded=0;orthogonalLoop=1;jettySize=auto;html=1;entryX=0.5;entryY=0;entryDx=0;entryDy=0;" edge="1" parent="1" source="8R4nlL-NDN4ofbqcLxZN-2" target="8R4nlL-NDN4ofbqcLxZN-4">
          <mxGeometry relative="1" as="geometry" />
        </mxCell>
        <mxCell id="8R4nlL-NDN4ofbqcLxZN-2" value="DNS" style="rounded=0;whiteSpace=wrap;html=1;" vertex="1" parent="1">
          <mxGeometry x="440" y="80" width="120" height="60" as="geometry" />
        </mxCell>
        <mxCell id="8R4nlL-NDN4ofbqcLxZN-16" style="edgeStyle=orthogonalEdgeStyle;rounded=0;orthogonalLoop=1;jettySize=auto;html=1;entryX=0;entryY=0.5;entryDx=0;entryDy=0;" edge="1" parent="1" source="8R4nlL-NDN4ofbqcLxZN-3" target="8R4nlL-NDN4ofbqcLxZN-1">
          <mxGeometry relative="1" as="geometry">
            <Array as="points">
              <mxPoint x="170" y="110" />
            </Array>
          </mxGeometry>
        </mxCell>
        <mxCell id="8R4nlL-NDN4ofbqcLxZN-3" value="BROWSER" style="rounded=0;whiteSpace=wrap;html=1;" vertex="1" parent="1">
          <mxGeometry x="100" y="250" width="120" height="60" as="geometry" />
        </mxCell>
        <mxCell id="8R4nlL-NDN4ofbqcLxZN-4" value="SERVER&lt;br&gt;63.42.24.124" style="rounded=0;whiteSpace=wrap;html=1;" vertex="1" parent="1">
          <mxGeometry x="590" y="250" width="120" height="60" as="geometry" />
        </mxCell>
        <mxCell id="8R4nlL-NDN4ofbqcLxZN-5" value="HTML" style="rounded=0;whiteSpace=wrap;html=1;" vertex="1" parent="1">
          <mxGeometry x="-50" y="340" width="80" height="30" as="geometry" />
        </mxCell>
        <mxCell id="8R4nlL-NDN4ofbqcLxZN-6" value="CSS" style="rounded=0;whiteSpace=wrap;html=1;" vertex="1" parent="1">
          <mxGeometry x="-50" y="380" width="80" height="30" as="geometry" />
        </mxCell>
        <mxCell id="8R4nlL-NDN4ofbqcLxZN-7" value="JS" style="rounded=0;whiteSpace=wrap;html=1;" vertex="1" parent="1">
          <mxGeometry x="-50" y="420" width="80" height="30" as="geometry" />
        </mxCell>
        <mxCell id="8R4nlL-NDN4ofbqcLxZN-8" value="" style="endArrow=classic;html=1;rounded=0;exitX=1;exitY=0.5;exitDx=0;exitDy=0;entryX=0;entryY=0.25;entryDx=0;entryDy=0;startArrow=none;" edge="1" parent="1" source="8R4nlL-NDN4ofbqcLxZN-10" target="8R4nlL-NDN4ofbqcLxZN-4">
          <mxGeometry width="50" height="50" relative="1" as="geometry">
            <mxPoint x="380" y="400" as="sourcePoint" />
            <mxPoint x="430" y="350" as="targetPoint" />
          </mxGeometry>
        </mxCell>
        <mxCell id="8R4nlL-NDN4ofbqcLxZN-9" value="" style="endArrow=classic;html=1;rounded=0;exitX=0;exitY=0.5;exitDx=0;exitDy=0;entryX=1;entryY=0.75;entryDx=0;entryDy=0;startArrow=none;" edge="1" parent="1" source="8R4nlL-NDN4ofbqcLxZN-14" target="8R4nlL-NDN4ofbqcLxZN-3">
          <mxGeometry width="50" height="50" relative="1" as="geometry">
            <mxPoint x="220" y="300" as="sourcePoint" />
            <mxPoint x="350" y="450" as="targetPoint" />
          </mxGeometry>
        </mxCell>
        <mxCell id="8R4nlL-NDN4ofbqcLxZN-10" value="Request" style="text;html=1;strokeColor=none;fillColor=none;align=center;verticalAlign=middle;whiteSpace=wrap;rounded=0;" vertex="1" parent="1">
          <mxGeometry x="370" y="230" width="60" height="30" as="geometry" />
        </mxCell>
        <mxCell id="8R4nlL-NDN4ofbqcLxZN-12" value="" style="endArrow=none;html=1;rounded=0;exitX=1;exitY=0.25;exitDx=0;exitDy=0;entryX=0;entryY=0.5;entryDx=0;entryDy=0;" edge="1" parent="1" source="8R4nlL-NDN4ofbqcLxZN-3" target="8R4nlL-NDN4ofbqcLxZN-10">
          <mxGeometry width="50" height="50" relative="1" as="geometry">
            <mxPoint x="220" y="265" as="sourcePoint" />
            <mxPoint x="360" y="265" as="targetPoint" />
          </mxGeometry>
        </mxCell>
        <mxCell id="8R4nlL-NDN4ofbqcLxZN-14" value="Response" style="text;html=1;strokeColor=none;fillColor=none;align=center;verticalAlign=middle;whiteSpace=wrap;rounded=0;" vertex="1" parent="1">
          <mxGeometry x="370" y="300" width="60" height="30" as="geometry" />
        </mxCell>
        <mxCell id="8R4nlL-NDN4ofbqcLxZN-15" value="" style="endArrow=none;html=1;rounded=0;exitX=0;exitY=0.75;exitDx=0;exitDy=0;entryX=1;entryY=0.5;entryDx=0;entryDy=0;" edge="1" parent="1" source="8R4nlL-NDN4ofbqcLxZN-4" target="8R4nlL-NDN4ofbqcLxZN-14">
          <mxGeometry width="50" height="50" relative="1" as="geometry">
            <mxPoint x="590" y="295" as="sourcePoint" />
            <mxPoint x="220" y="295" as="targetPoint" />
          </mxGeometry>
        </mxCell>
        <mxCell id="8R4nlL-NDN4ofbqcLxZN-20" value="" style="endArrow=none;dashed=1;html=1;rounded=0;entryX=0;entryY=0.75;entryDx=0;entryDy=0;" edge="1" parent="1" target="8R4nlL-NDN4ofbqcLxZN-3">
          <mxGeometry width="50" height="50" relative="1" as="geometry">
            <mxPoint x="30" y="360" as="sourcePoint" />
            <mxPoint x="80" y="310" as="targetPoint" />
          </mxGeometry>
        </mxCell>
      </root>
    </mxGraphModel>
  </diagram>
</mxfile>
